<svg width="91" height="40" viewBox="0 0 91 40" fill="none" xmlns="http://www.w3.org/2000/svg">
<path d="M10.4935 0.218712L10.5263 0L7.36842 21.0526H0L10.4935 0.218712Z" fill="#48E7FF"/>
<path d="M3.85965 18.9474H11.2281L0.701752 40L3.85965 18.9474Z" fill="#48E7FF"/>
<path d="M20.452 21.484V19.66H26.812V21.484H20.452ZM25.528 16.6H27.556V25H25.528V16.6ZM19.888 16.6H21.916V25H19.888V16.6ZM34.7936 19.48L31.1936 27.64H29.3696L30.7136 24.556L28.3256 19.48H30.3176L32.1056 23.908L31.1696 23.896L32.9336 19.48H34.7936ZM37.1994 27.64H35.3874V19.48H37.1994V27.64ZM41.7114 22.24C41.7114 22.88 41.5834 23.42 41.3274 23.86C41.0794 24.3 40.7554 24.632 40.3554 24.856C39.9634 25.08 39.5394 25.192 39.0834 25.192C38.6034 25.192 38.1874 25.072 37.8354 24.832C37.4914 24.584 37.2274 24.24 37.0434 23.8C36.8594 23.352 36.7674 22.832 36.7674 22.24C36.7674 21.64 36.8594 21.12 37.0434 20.68C37.2274 20.24 37.4914 19.9 37.8354 19.66C38.1874 19.412 38.6034 19.288 39.0834 19.288C39.5394 19.288 39.9634 19.4 40.3554 19.624C40.7554 19.848 41.0794 20.18 41.3274 20.62C41.5834 21.052 41.7114 21.592 41.7114 22.24ZM39.8034 22.24C39.8034 21.952 39.7434 21.708 39.6234 21.508C39.5034 21.308 39.3434 21.156 39.1434 21.052C38.9434 20.948 38.7234 20.896 38.4834 20.896C38.2754 20.896 38.0714 20.948 37.8714 21.052C37.6794 21.148 37.5194 21.296 37.3914 21.496C37.2634 21.696 37.1994 21.944 37.1994 22.24C37.1994 22.536 37.2634 22.784 37.3914 22.984C37.5194 23.184 37.6794 23.336 37.8714 23.44C38.0714 23.536 38.2754 23.584 38.4834 23.584C38.7234 23.584 38.9434 23.532 39.1434 23.428C39.3434 23.324 39.5034 23.172 39.6234 22.972C39.7434 22.772 39.8034 22.528 39.8034 22.24ZM45.6137 25.12C44.9737 25.12 44.4177 25.004 43.9457 24.772C43.4817 24.532 43.1217 24.196 42.8657 23.764C42.6097 23.332 42.4817 22.824 42.4817 22.24C42.4817 21.648 42.6057 21.136 42.8537 20.704C43.1017 20.272 43.4577 19.94 43.9217 19.708C44.3937 19.476 44.9497 19.36 45.5897 19.36C46.2297 19.36 46.7697 19.472 47.2097 19.696C47.6497 19.912 47.9857 20.228 48.2177 20.644C48.4497 21.06 48.5657 21.564 48.5657 22.156C48.5657 22.244 48.5657 22.332 48.5657 22.42C48.5657 22.5 48.5577 22.568 48.5417 22.624H43.5017V21.616H46.9097L46.4777 22.168C46.5177 22.112 46.5497 22.044 46.5737 21.964C46.6057 21.876 46.6217 21.804 46.6217 21.748C46.6217 21.508 46.5777 21.3 46.4897 21.124C46.4017 20.948 46.2777 20.812 46.1177 20.716C45.9577 20.62 45.7697 20.572 45.5537 20.572C45.2817 20.572 45.0537 20.632 44.8697 20.752C44.6857 20.872 44.5457 21.056 44.4497 21.304C44.3617 21.544 44.3137 21.848 44.3057 22.216C44.3057 22.552 44.3537 22.84 44.4497 23.08C44.5457 23.32 44.6897 23.504 44.8817 23.632C45.0737 23.752 45.3097 23.812 45.5897 23.812C45.9097 23.812 46.1817 23.752 46.4057 23.632C46.6377 23.512 46.8217 23.332 46.9577 23.092L48.5777 23.488C48.2897 24.032 47.8977 24.44 47.4017 24.712C46.9137 24.984 46.3177 25.12 45.6137 25.12ZM51.4726 19.48V25H49.6846V19.48H51.4726ZM53.0686 21.352C52.9726 21.256 52.8686 21.18 52.7566 21.124C52.6526 21.068 52.5206 21.04 52.3606 21.04C52.1846 21.04 52.0286 21.088 51.8926 21.184C51.7566 21.28 51.6526 21.42 51.5806 21.604C51.5086 21.788 51.4726 22.012 51.4726 22.276L51.0406 21.64C51.0406 21.2 51.1246 20.808 51.2926 20.464C51.4686 20.12 51.6966 19.848 51.9766 19.648C52.2566 19.448 52.5486 19.348 52.8526 19.348C53.0526 19.348 53.2446 19.388 53.4286 19.468C53.6126 19.548 53.7526 19.66 53.8486 19.804L53.0686 21.352ZM54.9182 22.996C55.1982 23.228 55.4502 23.412 55.6742 23.548C55.9062 23.676 56.1102 23.768 56.2862 23.824C56.4622 23.872 56.6142 23.896 56.7422 23.896C56.9262 23.896 57.0622 23.856 57.1502 23.776C57.2382 23.696 57.2822 23.592 57.2822 23.464C57.2822 23.344 57.2462 23.244 57.1742 23.164C57.1022 23.076 56.9782 22.992 56.8022 22.912C56.6342 22.832 56.4022 22.748 56.1062 22.66C55.8422 22.564 55.5902 22.452 55.3502 22.324C55.1182 22.188 54.9262 22.008 54.7742 21.784C54.6222 21.56 54.5462 21.272 54.5462 20.92C54.5462 20.584 54.6342 20.3 54.8102 20.068C54.9942 19.836 55.2382 19.66 55.5422 19.54C55.8542 19.42 56.2102 19.36 56.6102 19.36C56.9302 19.36 57.2262 19.396 57.4982 19.468C57.7782 19.54 58.0382 19.636 58.2782 19.756C58.5262 19.876 58.7582 20.016 58.9742 20.176L58.3262 21.352C58.0942 21.136 57.8302 20.96 57.5342 20.824C57.2382 20.68 56.9662 20.608 56.7182 20.608C56.5502 20.608 56.4222 20.64 56.3342 20.704C56.2542 20.768 56.2142 20.852 56.2142 20.956C56.2142 21.076 56.2622 21.176 56.3582 21.256C56.4622 21.336 56.6062 21.412 56.7902 21.484C56.9822 21.548 57.2142 21.632 57.4862 21.736C57.7742 21.84 58.0382 21.96 58.2782 22.096C58.5262 22.232 58.7222 22.404 58.8662 22.612C59.0182 22.82 59.0942 23.096 59.0942 23.44C59.0942 24.032 58.9102 24.48 58.5422 24.784C58.1822 25.08 57.6742 25.228 57.0182 25.228C56.6182 25.228 56.2462 25.18 55.9022 25.084C55.5662 24.996 55.2542 24.876 54.9662 24.724C54.6782 24.564 54.4102 24.388 54.1622 24.196L54.9182 22.996ZM61.6148 22.24C61.6148 22.536 61.6788 22.792 61.8068 23.008C61.9348 23.216 62.1108 23.38 62.3348 23.5C62.5668 23.62 62.8148 23.68 63.0788 23.68C63.3028 23.68 63.5148 23.648 63.7148 23.584C63.9228 23.512 64.1108 23.416 64.2788 23.296C64.4548 23.176 64.5988 23.028 64.7108 22.852V24.616C64.5188 24.768 64.2788 24.892 63.9908 24.988C63.7028 25.076 63.3508 25.12 62.9348 25.12C62.3268 25.12 61.7788 25 61.2908 24.76C60.8108 24.52 60.4308 24.184 60.1508 23.752C59.8788 23.32 59.7428 22.816 59.7428 22.24C59.7428 21.656 59.8788 21.152 60.1508 20.728C60.4308 20.296 60.8108 19.96 61.2908 19.72C61.7788 19.48 62.3268 19.36 62.9348 19.36C63.3508 19.36 63.7028 19.408 63.9908 19.504C64.2788 19.592 64.5188 19.704 64.7108 19.84V21.616C64.5988 21.44 64.4508 21.292 64.2668 21.172C64.0908 21.052 63.8988 20.96 63.6908 20.896C63.4828 20.832 63.2788 20.8 63.0788 20.8C62.8148 20.8 62.5668 20.864 62.3348 20.992C62.1108 21.12 61.9348 21.292 61.8068 21.508C61.6788 21.724 61.6148 21.968 61.6148 22.24ZM67.8085 19.48V25H66.0205V19.48H67.8085ZM69.4045 21.352C69.3085 21.256 69.2045 21.18 69.0925 21.124C68.9885 21.068 68.8565 21.04 68.6965 21.04C68.5205 21.04 68.3645 21.088 68.2285 21.184C68.0925 21.28 67.9885 21.42 67.9165 21.604C67.8445 21.788 67.8085 22.012 67.8085 22.276L67.3765 21.64C67.3765 21.2 67.4605 20.808 67.6285 20.464C67.8045 20.12 68.0325 19.848 68.3125 19.648C68.5925 19.448 68.8845 19.348 69.1885 19.348C69.3885 19.348 69.5805 19.388 69.7645 19.468C69.9485 19.548 70.0885 19.66 70.1845 19.804L69.4045 21.352ZM73.5863 25.12C72.9463 25.12 72.3903 25.004 71.9183 24.772C71.4543 24.532 71.0943 24.196 70.8383 23.764C70.5823 23.332 70.4543 22.824 70.4543 22.24C70.4543 21.648 70.5783 21.136 70.8263 20.704C71.0743 20.272 71.4303 19.94 71.8943 19.708C72.3663 19.476 72.9223 19.36 73.5623 19.36C74.2023 19.36 74.7423 19.472 75.1823 19.696C75.6223 19.912 75.9583 20.228 76.1903 20.644C76.4223 21.06 76.5383 21.564 76.5383 22.156C76.5383 22.244 76.5383 22.332 76.5383 22.42C76.5383 22.5 76.5303 22.568 76.5143 22.624H71.4743V21.616H74.8823L74.4503 22.168C74.4903 22.112 74.5223 22.044 74.5463 21.964C74.5783 21.876 74.5943 21.804 74.5943 21.748C74.5943 21.508 74.5503 21.3 74.4623 21.124C74.3743 20.948 74.2503 20.812 74.0903 20.716C73.9303 20.62 73.7423 20.572 73.5263 20.572C73.2543 20.572 73.0263 20.632 72.8423 20.752C72.6583 20.872 72.5183 21.056 72.4223 21.304C72.3343 21.544 72.2863 21.848 72.2783 22.216C72.2783 22.552 72.3263 22.84 72.4223 23.08C72.5183 23.32 72.6623 23.504 72.8543 23.632C73.0463 23.752 73.2823 23.812 73.5623 23.812C73.8823 23.812 74.1543 23.752 74.3783 23.632C74.6103 23.512 74.7943 23.332 74.9303 23.092L76.5503 23.488C76.2623 24.032 75.8703 24.44 75.3743 24.712C74.8863 24.984 74.2903 25.12 73.5863 25.12ZM80.4652 25.12C79.8252 25.12 79.2692 25.004 78.7972 24.772C78.3332 24.532 77.9732 24.196 77.7172 23.764C77.4612 23.332 77.3332 22.824 77.3332 22.24C77.3332 21.648 77.4572 21.136 77.7052 20.704C77.9532 20.272 78.3092 19.94 78.7732 19.708C79.2452 19.476 79.8012 19.36 80.4412 19.36C81.0812 19.36 81.6212 19.472 82.0612 19.696C82.5012 19.912 82.8372 20.228 83.0692 20.644C83.3012 21.06 83.4172 21.564 83.4172 22.156C83.4172 22.244 83.4172 22.332 83.4172 22.42C83.4172 22.5 83.4092 22.568 83.3932 22.624H78.3532V21.616H81.7612L81.3292 22.168C81.3692 22.112 81.4012 22.044 81.4252 21.964C81.4572 21.876 81.4732 21.804 81.4732 21.748C81.4732 21.508 81.4292 21.3 81.3412 21.124C81.2532 20.948 81.1292 20.812 80.9692 20.716C80.8092 20.62 80.6212 20.572 80.4052 20.572C80.1332 20.572 79.9052 20.632 79.7212 20.752C79.5372 20.872 79.3972 21.056 79.3012 21.304C79.2132 21.544 79.1652 21.848 79.1572 22.216C79.1572 22.552 79.2052 22.84 79.3012 23.08C79.3972 23.32 79.5412 23.504 79.7332 23.632C79.9252 23.752 80.1612 23.812 80.4412 23.812C80.7612 23.812 81.0332 23.752 81.2572 23.632C81.4892 23.512 81.6732 23.332 81.8092 23.092L83.4292 23.488C83.1412 24.032 82.7492 24.44 82.2532 24.712C81.7652 24.984 81.1692 25.12 80.4652 25.12ZM88.1241 21.64C88.1241 21.312 88.0601 21.06 87.9321 20.884C87.8121 20.708 87.6081 20.62 87.3201 20.62C87.1281 20.62 86.9601 20.66 86.8161 20.74C86.6721 20.82 86.5601 20.936 86.4801 21.088C86.4001 21.24 86.3601 21.424 86.3601 21.64V25H84.5361V19.48H86.3601V20.308C86.5201 20.004 86.7361 19.768 87.0081 19.6C87.2881 19.432 87.6321 19.348 88.0401 19.348C88.7281 19.348 89.2281 19.532 89.5401 19.9C89.8521 20.268 90.0081 20.784 90.0081 21.448V25H88.1241V21.64Z" fill="black"/>
</svg>
